<?xml version="1.0" encoding="utf-8"?>
<!-- Generator: Adobe Illustrator 24.2.1, SVG Export Plug-In . SVG Version: 6.00 Build 0)  -->
<svg version="1.1" id="圖層_1" xmlns="http://www.w3.org/2000/svg" xmlns:xlink="http://www.w3.org/1999/xlink" x="0px" y="0px"
	 viewBox="0 0 85 51.7" style="enable-background:new 0 0 85 51.7;" xml:space="preserve">
<style type="text/css">
	.st0{fill:#FFFFFF;}
</style>
<g>
	<path class="st0" d="M3.7,36.8c1.5-8.3,2.9-16.5,4.4-24.7c2.1,0,4.2,0,6.2,0c-0.1,0.8-0.2,1.6-0.4,2.5c0.3-0.2,0.4-0.3,0.6-0.5
		c1-1,2.1-1.9,3.5-2.3c1.8-0.5,3.6-0.5,5.3,0.6c0.9,0.6,1.5,1.5,1.9,2.5c0.6,1.5,0.8,3.1,0.7,4.8c-0.2,2.3-0.6,4.6-1.7,6.7
		c-0.5,0.9-1.1,1.6-1.7,2.4c-0.9,1.2-2.1,1.9-3.5,2.3c-0.9,0.2-1.8,0.4-2.7,0.4c-1.4,0-2.7-0.4-3.7-1.4c-0.2-0.2-0.5-0.4-0.8-0.6
		c-0.3,1.8-0.6,3.6-0.9,5.4c-0.1,0.5-0.2,1.1-0.3,1.6c0,0.1-0.2,0.3-0.3,0.3C8.1,36.8,6,36.8,3.7,36.8z M19.1,20.2
		c0-0.5-0.1-0.9-0.1-1.4c-0.2-1.2-1.2-2-2.3-1.8c-1.1,0.2-1.9,0.7-2.5,1.7c-0.9,1.7-1.4,3.4-1.1,5.3c0.1,0.6,0.3,1.2,0.9,1.7
		c1.3,0.9,2.8,0.5,3.7-0.8C18.6,23.5,19.2,21.9,19.1,20.2z"/>
	<path class="st0" d="M63,29.6c-0.1,0.4-0.2,0.9-0.3,1.3c-0.2,1.3-0.4,2.6-0.7,3.9c0,0.1-0.2,0.3-0.3,0.3c-2.1,0-4.3,0-6.5,0
		c0.1-0.7,0.2-1.3,0.3-1.9c0.2-1.2,0.4-2.3,0.6-3.5c0.2-1.3,0.5-2.5,0.7-3.8c0.2-1.1,0.4-2.2,0.6-3.4c0.2-1.3,0.4-2.6,0.7-3.9
		c0.2-1.2,0.4-2.3,0.6-3.5c0.2-0.9,0.3-1.8,0.5-2.7c0-0.1,0.2-0.2,0.3-0.2c2,0,3.9,0,5.9,0c-0.1,0.9-0.3,1.7-0.4,2.6
		c0.5-0.5,1-0.9,1.5-1.4c1.2-1.1,2.6-1.6,4.2-1.7c1.3,0,2.6,0.1,3.7,0.9c0.9,0.6,1.4,1.5,1.8,2.5c0.4,1.1,0.6,2.2,0.7,3.4
		c0.1,2.9-0.5,5.6-1.8,8.1C74.3,28.5,73,30,71,30.9c-0.9,0.4-1.8,0.6-2.8,0.7c-1.5,0.2-2.8-0.2-4-1C63.8,30.4,63.4,29.9,63,29.6z
		 M64.2,22.9c0,0.4,0.1,0.8,0.1,1.2c0.1,1,0.6,1.6,1.6,1.9c1,0.3,1.8,0,2.5-0.6c0.7-0.7,1.1-1.5,1.4-2.4c0.5-1.3,0.6-2.6,0.4-4
		c-0.3-1.5-1.1-2.1-2.4-2c-1,0.1-1.8,0.6-2.3,1.5C64.6,19.8,64.2,21.3,64.2,22.9z"/>
	<path class="st0" d="M55.2,26.1c-2.2,0-4.3,0-6.5,0c0.1-0.6,0.2-1.2,0.3-1.7c0.2-1.3,0.5-2.6,0.7-3.9c0.1-0.6,0.1-1.1,0-1.7
		c-0.2-1.2-1.4-1.8-2.6-1.3c-0.9,0.4-1.6,1.1-1.9,2.1c-0.3,1.2-0.6,2.4-0.8,3.7c-0.2,0.9-0.3,1.8-0.5,2.7c0,0.1-0.2,0.2-0.3,0.2
		c-2.1,0-4.1,0-6.3,0c0.1-0.5,0.1-1,0.2-1.4c0.2-1.2,0.4-2.5,0.6-3.7c0.1-0.6,0.2-1.2,0.3-1.9c0.2-1.2-1.2-2.4-2.6-1.7
		c-1.3,0.6-2,1.6-2.2,2.9c-0.3,1.7-0.6,3.4-0.9,5.1c0,0.2-0.1,0.4-0.1,0.6c-1.1,0-2.2,0-3.3,0c-1.1,0-2.2,0-3.3,0
		c0.8-4.7,1.6-9.3,2.5-14c2,0,4.1,0,6.2,0c-0.2,0.9-0.3,1.7-0.5,2.7c0.5-0.4,0.9-0.7,1.2-1c1.3-1.1,2.7-1.9,4.5-2.1
		c1.2-0.1,2.3-0.1,3.4,0.4c0.9,0.4,1.5,1.1,2,1.9c0.1,0.2,0.2,0.5,0.3,0.8c0.5-0.4,0.9-0.7,1.3-1.1c1.2-1.1,2.6-1.8,4.2-2
		c1.4-0.2,2.7-0.1,3.9,0.6c1.1,0.6,1.7,1.6,1.9,2.8c0.3,1.6,0.1,3.2-0.3,4.8c-0.4,1.8-0.6,3.7-0.9,5.5
		C55.3,25.7,55.3,25.9,55.2,26.1z"/>
	<path class="st0" d="M81.3,35.4c0,0.3,0,0.5,0,0.8c-0.2,0-0.4,0-0.5,0c-13.6,0-27.1,0-40.7,0c-1.3,0-2.6,0.3-3.5,1.2
		c-0.7,0.7-1.2,1.4-1.5,2.3c-0.3,1-0.7,1.9-1,2.9c-0.2,0.6-0.1,0.8-1.1,0.5c0.5-3.1,1.1-6.3,1.6-9.4c0,0-0.1,0-0.1-0.1
		c-0.4,0.4-0.9,0.9-1.3,1.3c-1,1.2-2.4,1.6-3.9,1.6c-5.7,0-11.5,0-17.2,0c-0.2,0-0.3,0-0.5,0c0-0.3,0-0.5,0-0.8c0.2,0,0.3,0,0.5,0
		c5.7,0,11.4,0,17.1,0c2.1,0,3.7-1,4.6-2.9c0.7-1.4,1.2-2.9,1.8-4.4c0-0.1,0.3-0.2,0.4-0.2c0.2,0.1,0.6-0.1,0.5,0.4
		c-0.3,1.7-0.6,3.3-0.9,5c-0.2,1.3-0.4,2.6-0.6,3.8c0,0.1,0,0.2,0,0.4c0.2-0.3,0.4-0.4,0.6-0.7c0.8-1.1,1.9-1.7,3.2-1.8
		c0.4-0.1,0.8-0.1,1.2-0.1c13.6,0,27.3,0,40.9,0C80.9,35.4,81.1,35.4,81.3,35.4z"/>
	<path class="st0" d="M73.9,39.3c0,0.3-0.1,0.6-0.1,0.9c-0.2,0-0.4,0-0.7,0c-0.1,0.8-0.3,1.5-0.4,2.2c-0.1,0.4-0.1,0.8-0.2,1.1
		c0,0.1-0.2,0.2-0.3,0.2c-0.3,0-0.6,0-1,0c0.2-1.2,0.4-2.4,0.6-3.6c-0.3,0-0.5,0-0.7,0c0-0.1,0-0.3,0-0.4c0,0,0,0-0.1,0
		c0,0.1-0.1,0.2-0.1,0.3c-0.2,0.9-0.3,1.8-0.5,2.7c-0.2,1-1.6,1.5-2.4,0.9c-0.3-0.2-0.4-0.6-0.3-1c0.2-1.1,0.4-2.2,0.6-3.3
		c0-0.1,0.3-0.2,0.4-0.2c0.7,0,1.4-0.1,2.1,0c0.5,0.1,1-0.1,1.4,0c0.5,0,1,0,1.5,0C73.7,39.2,73.8,39.2,73.9,39.3z M69.5,39.7
		c-0.1,0.6-0.2,1.2-0.3,1.8C69.5,41.5,69.7,40.6,69.5,39.7z"/>
	<path class="st0" d="M41.9,43.7c0.1-0.6,0.2-1.2,0.3-1.9C42.1,41.9,42,42,42,42.1c-0.1,0.5-0.2,1.1-0.3,1.6c-0.4,0-0.8,0-1.3,0
		c0.1-0.8,0.3-1.5,0.4-2.3c0.1-0.6,0.2-1.2,0.3-1.9c0-0.3,0.1-0.4,0.4-0.3c0.3,0,0.6,0,1,0c-0.1,0.5-0.2,1-0.2,1.4
		c0.1,0,0.1,0,0.2,0c0.1-0.5,0.2-1,0.3-1.5c0.4,0,0.8,0,1.2,0c-0.2,1.4-0.5,2.8-0.7,4.3c0,0.1-0.2,0.2-0.3,0.2
		C42.7,43.8,42.3,43.7,41.9,43.7z"/>
	<path class="st0" d="M47.8,39.2c0.6,0,1.2,0,1.7,0c0.6,0,0.8,0.3,0.8,0.8c0,0.5-0.1,0.9-0.4,1.2c0.1,0.2,0.2,0.5,0.2,0.7
		c0,0.3,0,0.7-0.1,1c-0.1,0.5-0.4,0.7-0.9,0.7c-0.7,0-1.3,0-2,0C47.3,42.2,47.5,40.7,47.8,39.2z M48.5,42.8c0.2-0.1,0.5-0.8,0.4-0.9
		c0,0-0.1-0.1-0.1-0.1c-0.1,0-0.1,0.1-0.1,0.1C48.6,42.2,48.5,42.5,48.5,42.8z M48.8,41c0.1,0,0.1,0,0.2,0c0.1-0.2,0.1-0.5,0.2-0.7
		c0,0-0.1-0.1-0.1-0.1c-0.1,0-0.1,0.1-0.2,0.1C48.8,40.5,48.8,40.7,48.8,41z"/>
	<path class="st0" d="M63.6,43.8c-1,0-1.3-0.3-1.2-1.4c0.1-0.7,0.2-1.4,0.4-2.1c0.2-1,1.6-1.6,2.4-0.9c0.3,0.3,0.4,0.7,0.3,1.1
		c-0.1,0.8-0.3,1.5-0.4,2.2C64.9,43.5,64.5,43.8,63.6,43.8z M64.2,40.7c-0.1,0-0.1,0-0.2,0c0,0.2,0,0.4-0.1,0.6
		c-0.1,0.4-0.2,0.8-0.2,1.2c0,0.1,0.1,0.2,0.1,0.2c0.1,0,0.1-0.1,0.1-0.1C64,42,64.1,41.4,64.2,40.7z"/>
	<path class="st0" d="M80.6,39.2c0.3,0,0.7,0,1.1,0c-0.3,1.5-0.5,3-0.8,4.5c-0.4,0-0.7,0-1.1,0c-0.1-0.4-0.1-0.9-0.2-1.3
		c0,0-0.1,0-0.1,0c-0.1,0.5-0.2,0.9-0.3,1.4c-0.4,0-0.7,0-1.1,0c0.2-1.2,0.4-2.4,0.6-3.6c0-0.2,0-0.4,0.1-0.6c0-0.1,0.2-0.2,0.3-0.2
		c0.2,0,0.4-0.1,0.6,0c0.1,0,0.3,0.2,0.3,0.3c0.1,0.3,0.1,0.7,0.3,1C80.4,40.1,80.5,39.7,80.6,39.2z"/>
	<path class="st0" d="M76.3,43.8c-1.1,0.1-1.3-0.6-1.1-1.5c0.2-0.7,0.3-1.4,0.4-2.1c0.1-0.7,0.6-1,1.1-1.1c0.5-0.1,1.1-0.2,1.4,0.3
		c0.1,0.2,0.3,0.5,0.2,0.7c-0.1,0.8-0.3,1.5-0.4,2.3C77.7,43.5,77.4,43.8,76.3,43.8z M77.1,40.1c-0.1,0-0.1,0-0.2,0
		c-0.2,1-0.3,1.9-0.5,2.9c0.1,0,0.2,0,0.2,0C76.8,42,76.9,41.1,77.1,40.1z"/>
	<path class="st0" d="M55.7,40.6c-0.3,0-0.6,0-0.9,0c-0.1,0-0.2,0-0.2,0c0-0.2-0.1-0.3-0.3-0.1c0,0,0.1,0.2,0.2,0.3
		c0.3,0.3,0.8,0.6,0.9,1c0.2,0.9-0.1,2.1-1.4,2c-0.1,0-0.3,0-0.4,0c-0.6,0-1.1-0.5-0.9-1.1c0.1-0.2,0-0.4,0-0.6c0.4,0,0.8,0,1.2,0
		c0,0.3-0.1,0.6-0.1,0.9c0.5-0.3,0.5-0.8,0.1-1c-0.2-0.1-0.4-0.2-0.5-0.3c-0.5-0.3-0.6-0.9-0.4-1.6c0.2-0.5,0.6-0.9,1.2-0.9
		c0.2,0,0.4,0,0.6,0c0.7,0,1,0.5,0.9,1.1C55.8,40.4,55.7,40.5,55.7,40.6z"/>
	<path class="st0" d="M61.1,40.7c0.3,0.3,0.6,0.5,0.9,0.8c0.4,0.6,0.2,1.1,0,1.7c-0.2,0.5-0.6,0.6-1.1,0.6c-0.2,0-0.4,0-0.6,0
		c-0.5,0-0.8-0.3-0.7-0.8c0-1.1-0.2-1,1-1c0,0,0.1,0,0.2,0c0,0.3,0,0.6-0.1,0.9c0,0,0,0,0.1,0.1c0.1-0.1,0.3-0.3,0.2-0.4
		c0-0.2-0.1-0.5-0.2-0.6c-0.2-0.3-0.6-0.5-0.8-0.8c-0.5-0.9,0.2-2.1,1.3-2.1c0.3,0,0.7,0,1,0.2c0.4,0.1,0.5,0.9,0.3,1.2
		c-0.1,0.1-0.2,0.1-0.3,0.1C61.8,40.6,61.5,40.6,61.1,40.7c0.1-0.2,0.1-0.4,0.1-0.6c-0.1,0-0.2,0-0.2,0C61,40.3,61,40.4,61.1,40.7
		C61.1,40.6,61.1,40.6,61.1,40.7z"/>
	<path class="st0" d="M53,39.2c0,0.3,0,0.5-0.1,0.6c0,0.1-0.2,0.3-0.3,0.3c-0.5,0-0.6,0.1-0.6,0.6c0,0.1-0.1,0.1-0.1,0.2
		c0.3,0,0.5,0,0.7,0c0.1,0.8,0,0.9-0.8,0.9c0,0.1,0,0.3,0,0.4c0,0.1-0.1,0.3-0.1,0.5c0.3,0,0.6,0,0.9,0c0,0.3,0,0.5-0.1,0.7
		c0,0.1-0.2,0.2-0.3,0.2c-0.6,0-1.2,0-1.9,0c0.2-1.4,0.5-2.8,0.7-4.2c0-0.1,0.2-0.2,0.3-0.3C51.8,39.2,52.4,39.2,53,39.2z"/>
	<path class="st0" d="M44.4,39.2c0.7,0,1.3,0,2,0c0,0.3-0.1,0.6-0.1,0.9c-0.3,0-0.5,0-0.8,0c0,0.3-0.1,0.5-0.2,0.8
		c0.3,0,0.4,0,0.7,0c0,0.3-0.1,0.6-0.1,0.9c-0.2,0-0.5,0-0.7,0c-0.1,0.3-0.1,0.6-0.2,0.9c0.3,0,0.5,0,0.8,0c0,0.3-0.1,0.6-0.1,0.9
		c-0.7,0-1.4,0-2.1,0C43.9,42.2,44.1,40.7,44.4,39.2z"/>
	<path class="st0" d="M56.7,40.1c-0.3,0-0.5,0-0.7,0c0-0.2,0-0.4,0.1-0.6c0.1-0.1,0.2-0.3,0.3-0.3c0.8,0,1.5,0,2.4,0
		c0,0.3-0.1,0.6-0.1,0.9c-0.2,0-0.4,0-0.7,0c-0.2,1.2-0.4,2.4-0.6,3.6c-0.4,0-0.8,0-1.3,0C56.3,42.5,56.5,41.4,56.7,40.1z"/>
	<path class="st0" d="M38.9,40.1c-0.3,0-0.5,0-0.7,0c0-0.2,0-0.5,0.1-0.7c0-0.1,0.2-0.2,0.3-0.2c0.8,0,1.5,0,2.4,0
		c0,0.3-0.1,0.6-0.1,0.9c-0.2,0-0.4,0-0.7,0c-0.2,1.2-0.4,2.4-0.6,3.6c-0.4,0-0.8,0-1.3,0C38.5,42.5,38.7,41.4,38.9,40.1z"/>
	<path class="st0" d="M66.1,39.2c0.5,0,0.9,0,1.3,0c-0.2,1.2-0.4,2.4-0.6,3.6c0.2,0,0.5,0,0.7,0c0,0.3-0.1,0.6-0.1,0.9
		c-0.6,0-1.3,0-2,0C65.6,42.2,65.9,40.7,66.1,39.2z"/>
	<path class="st0" d="M75.4,39.2c-0.3,1.5-0.5,3-0.8,4.5c-0.4,0-0.8,0-1.3,0c0.2-1.4,0.5-2.8,0.7-4.2c0-0.1,0.2-0.3,0.3-0.3
		C74.7,39.2,75,39.2,75.4,39.2z"/>
</g>
</svg>
